<svg width="35" height="35" viewBox="0 0 35 35" fill="none" xmlns="http://www.w3.org/2000/svg">
<path d="M30.625 12.6146V20.9271C30.625 21.4229 30.6104 21.9042 30.5812 22.3562C30.0388 21.7434 29.3719 21.2534 28.625 20.9189C27.878 20.5844 27.0683 20.4132 26.25 20.4167C23.027 20.4167 20.4166 23.0271 20.4166 26.25C20.4166 27.3437 20.7229 28.3792 21.2625 29.2542C21.5541 29.75 21.9333 30.2021 22.3708 30.5812C21.9187 30.6104 21.4375 30.625 20.927 30.625H12.6145C5.68746 30.625 2.91663 27.8542 2.91663 20.9271V12.6146C2.91663 5.68749 5.68746 2.91666 12.6145 2.91666H20.927C27.8541 2.91666 30.625 5.68749 30.625 12.6146Z" stroke="black" stroke-width="2.5" stroke-linecap="round" stroke-linejoin="round"/>
<path d="M9.80001 21.0292C10.3608 21.0292 10.8987 20.8064 11.2952 20.4098C11.6918 20.0132 11.9146 19.4754 11.9146 18.9146C11.9146 18.3537 11.6918 17.8159 11.2952 17.4193C10.8987 17.0228 10.3608 16.8 9.80001 16.8C9.23919 16.8 8.70133 17.0228 8.30477 17.4193C7.90821 17.8159 7.68542 18.3537 7.68542 18.9146C7.68542 19.4754 7.90821 20.0132 8.30477 20.4098C8.70133 20.8064 9.23919 21.0292 9.80001 21.0292V21.0292Z" stroke="black" stroke-width="2.5" stroke-linecap="round" stroke-linejoin="round"/>
<path d="M19.6584 17.5V9.24583C19.6584 7.48125 18.55 7.24792 17.4417 7.55417L13.2271 8.70625C12.4688 8.91042 11.9292 9.52292 11.9292 10.3979V18.9146" stroke="black" stroke-width="2.5" stroke-linecap="round" stroke-linejoin="round"/>
<path d="M11.9146 12.8771L19.6583 10.7625M17.5437 19.6146C18.1045 19.6146 18.6424 19.3918 19.039 18.9952C19.4355 18.5987 19.6583 18.0608 19.6583 17.5C19.6583 16.9392 19.4355 16.4013 19.039 16.0048C18.6424 15.6082 18.1045 15.3854 17.5437 15.3854C16.9829 15.3854 16.445 15.6082 16.0485 16.0048C15.6519 16.4013 15.4291 16.9392 15.4291 17.5C15.4291 18.0608 15.6519 18.5987 16.0485 18.9952C16.445 19.3918 16.9829 19.6146 17.5437 19.6146V19.6146Z" stroke="black" stroke-width="2.5" stroke-linecap="round" stroke-linejoin="round"/>
<path d="M28.4229 26.2208H24.0771M26.25 24.0917V28.4521M32.0833 26.25C32.0833 27.3437 31.7771 28.3792 31.2375 29.2542C30.7234 30.1182 29.9931 30.8335 29.1186 31.3296C28.244 31.8256 27.2554 32.0854 26.25 32.0833C25.2445 32.0854 24.2559 31.8256 23.3814 31.3296C22.5068 30.8335 21.7766 30.1182 21.2625 29.2542C20.7073 28.3506 20.4145 27.3104 20.4166 26.25C20.4166 23.0271 23.0271 20.4167 26.25 20.4167C29.4729 20.4167 32.0833 23.0271 32.0833 26.25Z" stroke="black" stroke-width="2.5" stroke-miterlimit="10" stroke-linecap="round" stroke-linejoin="round"/>
</svg>
