<svg width="100" height="19" viewBox="0 0 100 19" fill="none" xmlns="http://www.w3.org/2000/svg">
<path fill-rule="evenodd" clip-rule="evenodd" d="M99 8H58.2598C57.6867 3.48828 53.834 0 49.1667 0C44.4993 0 40.6466 3.48828 40.0735 8H1C0.447715 8 0 8.44772 0 9C0 9.55229 0.447715 10 1 10H40.0374C40.4584 14.6721 44.385 18.3333 49.1667 18.3333C53.9484 18.3333 57.8749 14.6721 58.296 10H99C99.5523 10 100 9.55229 100 9C100 8.44772 99.5523 8 99 8ZM45.4995 7.77385C45.1905 7.498 44.7164 7.52487 44.4405 7.83387C44.1647 8.14287 44.1915 8.61699 44.5005 8.89283L47.9307 11.9549C48.6203 12.5706 49.713 12.5706 50.4027 11.9549L53.8328 8.89283C54.1418 8.61699 54.1687 8.14287 53.8928 7.83387C53.617 7.52487 53.1429 7.498 52.8339 7.77385L49.4037 10.836C49.2832 10.9436 49.0502 10.9436 48.9296 10.836L45.4995 7.77385Z" fill="black"/>
</svg>
