<svg width="100" height="19" viewBox="0 0 100 19" fill="none" xmlns="http://www.w3.org/2000/svg">
<path fill-rule="evenodd" clip-rule="evenodd" d="M97.5 7H58.0758C57.1023 2.98308 53.4829 0 49.1667 0C44.8505 0 41.231 2.98308 40.2576 7H2.5C1.11929 7 0 8.11929 0 9.5C0 10.8807 1.11929 12 2.5 12H40.4463C41.6398 15.6759 45.0929 18.3333 49.1667 18.3333C53.2405 18.3333 56.6936 15.6759 57.8871 12H97.5C98.8807 12 100 10.8807 100 9.5C100 8.11929 98.8807 7 97.5 7ZM45.4995 7.77385C45.1905 7.498 44.7164 7.52487 44.4405 7.83387C44.1647 8.14287 44.1915 8.61699 44.5005 8.89283L47.9307 11.9549C48.6203 12.5706 49.713 12.5706 50.4027 11.9549L53.8328 8.89283C54.1418 8.61699 54.1687 8.14287 53.8928 7.83387C53.617 7.52487 53.1429 7.498 52.8339 7.77385L49.4037 10.836C49.2832 10.9436 49.0502 10.9436 48.9296 10.836L45.4995 7.77385Z" fill="black"/>
</svg>
